<svg width="32" height="32" viewBox="0 0 32 32" fill="none" xmlns="http://www.w3.org/2000/svg">
<g clip-path="url(#clip0_3185_268822)">
<path d="M31.0857 5.48571V4.57143H30.1714V3.65714H29.2571V2.74286H28.3429V1.82857H27.4286V0.914286H26.5143V0H25.6H24.6857H23.7714H22.8571H21.9429H21.0286H20.1143H19.2H18.2857H17.3714H16.4571H15.5429H14.6286H13.7143H12.8H11.8857H10.9714H10.0571H9.14286H8.22857H7.31429H6.4H5.48571V0.914286H4.57143V1.82857H3.65714V2.74286H2.74286V3.65714H1.82857V4.57143H0.914286V5.48571H0V6.4V7.31429V8.22857V9.14286V10.0571V10.9714V11.8857V12.8V13.7143V14.6286V15.5429V16.4571V17.3714V18.2857V19.2V20.1143V21.0286V21.9429V22.8571V23.7714V24.6857V25.6V26.5143H0.914286V27.4286H1.82857V28.3429H2.74286V29.2571H3.65714V30.1714H4.57143V31.0857H5.48571V32H6.4H7.31429H8.22857H9.14286H10.0571H10.9714H11.8857H12.8H13.7143H14.6286H15.5429H16.4571H17.3714H18.2857H19.2H20.1143H21.0286H21.9429H22.8571H23.7714H24.6857H25.6H26.5143V31.0857H27.4286V30.1714H28.3429V29.2571H29.2571V28.3429H30.1714V27.4286H31.0857V26.5143H32V25.6V24.6857V23.7714V22.8571V21.9429V21.0286V20.1143V19.2V18.2857V17.3714V16.4571V15.5429V14.6286V13.7143V12.8V11.8857V10.9714V10.0571V9.14286V8.22857V7.31429V6.4V5.48571H31.0857ZM29.2571 8.22857V9.14286V10.0571V10.9714V11.8857V12.8V13.7143V14.6286V15.5429V16.4571V17.3714V18.2857V19.2V20.1143V21.0286V21.9429V22.8571V23.7714V24.6857H28.3429V25.6H27.4286V26.5143H26.5143V27.4286H25.6V28.3429H24.6857V29.2571H23.7714H22.8571H21.9429H21.0286H20.1143H19.2H18.2857H17.3714H16.4571H15.5429H14.6286H13.7143H12.8H11.8857H10.9714H10.0571H9.14286H8.22857H7.31429V28.3429H6.4V27.4286H5.48571V26.5143H4.57143V25.6H3.65714V24.6857H2.74286V23.7714V22.8571V21.9429V21.0286V20.1143V19.2V18.2857V17.3714V16.4571V15.5429V14.6286V13.7143V12.8V11.8857V10.9714V10.0571V9.14286V8.22857V7.31429H3.65714V6.4H4.57143V5.48571H5.48571V4.57143H6.4V3.65714H7.31429V2.74286H8.22857H9.14286H10.0571H10.9714H11.8857H12.8H13.7143H14.6286H15.5429H16.4571H17.3714H18.2857H19.2H20.1143H21.0286H21.9429H22.8571H23.7714H24.6857V3.65714H25.6V4.57143H26.5143V5.48571H27.4286V6.4H28.3429V7.31429H29.2571V8.22857Z" fill="#FF66FF"/>
<path d="M5.4857 16.4571H4.57141V17.3714V18.2857V19.2V20.1143H5.4857H6.39998H7.31427V19.2V18.2857V17.3714V16.4571H6.39998H5.4857Z" fill="#D7F850"/>
<path d="M12.7999 12.8H13.7142H14.6285H15.5427H16.457H17.3713H18.2856H19.1999H20.1142H21.0285V11.8857V10.9714V10.0571V9.14286V8.22857H20.1142V9.14286H19.1999V10.0571H18.2856V9.14286H17.3713V8.22857H16.457V7.31429H15.5427V8.22857H14.6285V9.14286H13.7142V10.0571H12.7999V9.14286H11.8856V8.22857H10.9713V9.14286V10.0571V10.9714V11.8857V12.8H11.8856H12.7999Z" fill="#EC72F7"/>
<path d="M10.9714 16.4571H10.0571V17.3714V18.2857V19.2V20.1143H10.9714H11.8857H12.8V19.2V18.2857V17.3714V16.4571H11.8857H10.9714Z" fill="#D7F850"/>
<path d="M28.3428 7.31429V6.4H27.4285V5.48572H26.5142V4.57143H25.5999V3.65714H24.6857V2.74286H23.7714H22.8571H21.9428H21.0285H20.1142H19.1999H18.2857H17.3714H16.4571H15.5428H14.6285H13.7142H12.7999H11.8857H10.9714H10.0571H9.1428H8.22851H7.31423V3.65714H6.39994V4.57143H5.48566V5.48572H4.57137V6.4H3.65708V7.31429H2.7428V8.22857V9.14286V10.0571V10.9714V11.8857V12.8V13.7143V14.6286V15.5429V16.4571V17.3714V18.2857V19.2V20.1143V21.0286V21.9429V22.8571V23.7714V24.6857H3.65708V23.7714V22.8571V21.9429V21.0286V20.1143V19.2V18.2857V17.3714V16.4571V15.5429H4.57137H5.48566H6.39994H7.31423V16.4571H8.22851V17.3714V18.2857V19.2V20.1143H7.31423V21.0286H6.39994H5.48566H4.57137V21.9429V22.8571V23.7714V24.6857H3.65708V25.6H4.57137V26.5143H5.48566V27.4286H6.39994V28.3429H7.31423V29.2571H8.22851H9.1428H10.0571H10.9714H11.8857H12.7999H13.7142H14.6285H15.5428H16.4571H17.3714H18.2857H19.1999H20.1142H21.0285H21.9428H22.8571H23.7714H24.6857V28.3429H25.5999V27.4286H26.5142V26.5143H27.4285V25.6H28.3428V24.6857H27.4285H26.5142H25.5999H24.6857V23.7714H23.7714V22.8571V21.9429V21.0286V20.1143V19.2V18.2857V17.3714V16.4571H24.6857V15.5429H25.5999H26.5142H27.4285H28.3428V16.4571H27.4285H26.5142H25.5999H24.6857V17.3714V18.2857V19.2H25.5999H26.5142H27.4285V20.1143H26.5142H25.5999H24.6857V21.0286V21.9429V22.8571V23.7714H25.5999H26.5142H27.4285H28.3428V24.6857H29.2571V23.7714V22.8571V21.9429V21.0286V20.1143V19.2V18.2857V17.3714V16.4571V15.5429V14.6286V13.7143V12.8V11.8857V10.9714V10.0571V9.14286V8.22857V7.31429H28.3428ZM21.0285 4.57143H21.9428V5.48572H21.0285V4.57143ZM15.5428 4.57143H16.4571V5.48572H15.5428V4.57143ZM10.0571 4.57143H10.9714V5.48572H10.0571V4.57143ZM14.6285 24.6857H13.7142V23.7714H12.7999V22.8571H11.8857V21.9429H10.9714V21.0286H10.0571V21.9429V22.8571V23.7714V24.6857H9.1428V23.7714V22.8571V21.9429V21.0286V20.1143V19.2V18.2857V17.3714V16.4571V15.5429H10.0571H10.9714H11.8857H12.7999V16.4571H13.7142V17.3714V18.2857V19.2V20.1143H12.7999V21.0286H11.8857V21.9429H12.7999V22.8571H13.7142V23.7714H14.6285V24.6857ZM16.4571 16.4571V17.3714V18.2857V19.2V20.1143V21.0286V21.9429V22.8571V23.7714V24.6857H15.5428V23.7714V22.8571V21.9429V21.0286V20.1143V19.2V18.2857V17.3714V16.4571V15.5429H16.4571V16.4571ZM16.4571 13.7143H15.5428H14.6285H13.7142H12.7999H11.8857H10.9714V12.8H10.0571V11.8857V10.9714V10.0571V9.14286V8.22857V7.31429V6.4H10.9714V7.31429H11.8857V8.22857H12.7999V9.14286H13.7142V8.22857H14.6285V7.31429H15.5428V6.4H16.4571V7.31429H17.3714V8.22857H18.2857V9.14286H19.1999V8.22857H20.1142V7.31429H21.0285V6.4H21.9428V7.31429V8.22857V9.14286V10.0571V10.9714V11.8857V12.8H21.0285V13.7143H20.1142H19.1999H18.2857H17.3714H16.4571ZM22.8571 17.3714V18.2857H21.9428V19.2H21.0285V20.1143H20.1142V21.0286H19.1999V21.9429H18.2857V22.8571V23.7714H19.1999H20.1142H21.0285H21.9428H22.8571V24.6857H21.9428H21.0285H20.1142H19.1999H18.2857V23.7714H17.3714V22.8571V21.9429H18.2857V21.0286H19.1999V20.1143H20.1142V19.2H21.0285V18.2857H21.9428V17.3714V16.4571H21.0285H20.1142H19.1999H18.2857H17.3714V15.5429H18.2857H19.1999H20.1142H21.0285H21.9428V16.4571H22.8571V17.3714Z" fill="#D7F850"/>
<path d="M27.4285 23.7714H26.5142H25.6H24.6857V24.6857H25.6H26.5142H27.4285H28.3428V23.7714H27.4285Z" fill="black"/>
<path d="M26.5142 16.4571H27.4285H28.3428V15.5429H27.4285H26.5142H25.6H24.6857V16.4571H25.6H26.5142Z" fill="black"/>
<path d="M24.6856 21.9429V21.0286V20.1143H25.5999H26.5142H27.4285V19.2H26.5142H25.5999H24.6856V18.2857V17.3714V16.4571H23.7714V17.3714V18.2857V19.2V20.1143V21.0286V21.9429V22.8571V23.7714H24.6856V22.8571V21.9429Z" fill="black"/>
<path d="M21.9427 17.3714V18.2857H22.857V17.3714V16.4571H21.9427V17.3714Z" fill="black"/>
<path d="M21.9429 18.2857H21.0286V19.2H21.9429V18.2857Z" fill="black"/>
<path d="M21.0285 15.5429H20.1142H19.1999H18.2856H17.3713V16.4571H18.2856H19.1999H20.1142H21.0285H21.9428V15.5429H21.0285Z" fill="black"/>
<path d="M21.0285 9.14286V10.0571V10.9714V11.8857V12.8H21.9428V11.8857V10.9714V10.0571V9.14286V8.22857V7.31429V6.4H21.0285V7.31429H20.1143V8.22857H21.0285V9.14286Z" fill="black"/>
<path d="M21.9429 4.57143H21.0286V5.48571H21.9429V4.57143Z" fill="black"/>
<path d="M21.0285 19.2H20.1143V20.1143H21.0285V19.2Z" fill="black"/>
<path d="M20.1142 20.1143H19.2V21.0286H20.1142V20.1143Z" fill="black"/>
<path d="M20.1142 8.22858H19.2V9.14286H20.1142V8.22858Z" fill="black"/>
<path d="M19.1999 24.6857H20.1142H21.0285H21.9428H22.8571V23.7714H21.9428H21.0285H20.1142H19.1999H18.2856V24.6857H19.1999Z" fill="black"/>
<path d="M19.1999 21.0286H18.2856V21.9429H19.1999V21.0286Z" fill="black"/>
<path d="M19.1999 9.14286H18.2856V10.0571H19.1999V9.14286Z" fill="black"/>
<path d="M17.3713 22.8571V23.7714H18.2856V22.8571V21.9429H17.3713V22.8571Z" fill="black"/>
<path d="M18.2856 13.7143H19.1999H20.1142H21.0285V12.8H20.1142H19.1999H18.2856H17.3713H16.457H15.5427H14.6285H13.7142H12.7999H11.8856H10.9713V13.7143H11.8856H12.7999H13.7142H14.6285H15.5427H16.457H17.3713H18.2856Z" fill="black"/>
<path d="M18.2856 8.22858H17.3713V9.14286H18.2856V8.22858Z" fill="black"/>
<path d="M17.3713 7.31429H16.457V8.22857H17.3713V7.31429Z" fill="black"/>
<path d="M15.5428 16.4571V17.3714V18.2857V19.2V20.1143V21.0286V21.9429V22.8571V23.7714V24.6857H16.4571V23.7714V22.8571V21.9429V21.0286V20.1143V19.2V18.2857V17.3714V16.4571V15.5429H15.5428V16.4571Z" fill="black"/>
<path d="M16.4571 6.4H15.5428V7.31429H16.4571V6.4Z" fill="black"/>
<path d="M16.4571 4.57143H15.5428V5.48571H16.4571V4.57143Z" fill="black"/>
<path d="M15.5428 7.31429H14.6285V8.22857H15.5428V7.31429Z" fill="black"/>
<path d="M14.6285 23.7714H13.7142V24.6857H14.6285V23.7714Z" fill="black"/>
<path d="M14.6285 8.22858H13.7142V9.14286H14.6285V8.22858Z" fill="black"/>
<path d="M13.7142 22.8571H12.7999V23.7714H13.7142V22.8571Z" fill="black"/>
<path d="M12.7999 18.2857V19.2V20.1143H13.7142V19.2V18.2857V17.3714V16.4571H12.7999V17.3714V18.2857Z" fill="black"/>
<path d="M13.7142 9.14286H12.7999V10.0571H13.7142V9.14286Z" fill="black"/>
<path d="M12.7999 21.9429H11.8856V22.8571H12.7999V21.9429Z" fill="black"/>
<path d="M12.8 21.0286V20.1143H11.8857H10.9714H10.0571V19.2V18.2857V17.3714V16.4571H10.9714H11.8857H12.8V15.5429H11.8857H10.9714H10.0571H9.14282V16.4571V17.3714V18.2857V19.2V20.1143V21.0286V21.9429V22.8571V23.7714V24.6857H10.0571V23.7714V22.8571V21.9429V21.0286H10.9714V21.9429H11.8857V21.0286H12.8Z" fill="black"/>
<path d="M12.7999 8.22858H11.8856V9.14286H12.7999V8.22858Z" fill="black"/>
<path d="M10.9714 10.9714V10.0571V9.14286V8.22857H11.8857V7.31429H10.9714V6.4H10.0571V7.31429V8.22857V9.14286V10.0571V10.9714V11.8857V12.8H10.9714V11.8857V10.9714Z" fill="black"/>
<path d="M10.9714 4.57143H10.0571V5.48571H10.9714V4.57143Z" fill="black"/>
<path d="M7.31421 18.2857V19.2V20.1143H8.22849V19.2V18.2857V17.3714V16.4571H7.31421V17.3714V18.2857Z" fill="black"/>
<path d="M4.57139 23.7714V22.8571V21.9429V21.0286H5.48568H6.39996H7.31425V20.1143H6.39996H5.48568H4.57139V19.2V18.2857V17.3714V16.4571H5.48568H6.39996H7.31425V15.5429H6.39996H5.48568H4.57139H3.6571V16.4571V17.3714V18.2857V19.2V20.1143V21.0286V21.9429V22.8571V23.7714V24.6857H4.57139V23.7714Z" fill="black"/>
</g>
<defs>
<clipPath id="clip0_3185_268822">
<rect width="32" height="32" fill="white"/>
</clipPath>
</defs>
</svg>
