<svg width="384" height="384" viewBox="0 0 384 384" fill="none" xmlns="http://www.w3.org/2000/svg">
<g clip-path="url(#clip0_3567_340494)">
<path d="M384 197.486V208.457H373.029V219.429H362.057V230.4H351.086V241.371H340.114V252.343H329.143V263.314H318.171V274.286H307.2V285.257H296.229V296.229H285.257V307.2H274.286V318.171H263.314V329.143H252.343V340.114H241.371V351.086H230.4V362.057H219.429V373.029H208.457V384H175.543V373.029H164.571V362.057H153.6V351.086H142.629V340.114H131.657V329.143H120.686V318.171H109.714V307.2H98.7429V296.229H87.7714V285.257H76.8V274.286H65.8286V263.314H54.8571V252.343H43.8857V241.371H32.9143V230.4H21.9429V219.429H10.9714V208.457H0V76.8H10.9714V65.8286H21.9429V54.8571H32.9143V43.8857H43.8857V32.9143H54.8571V21.9429H65.8286V10.9714H76.8V0H142.629V10.9714H153.6V21.9429H164.571V32.9143H175.543V43.8857H186.514V54.8571H197.486V43.8857H208.457V32.9143H219.429V21.9429H230.4V10.9714H241.371V0H307.2V10.9714H318.171V21.9429H329.143V32.9143H340.114V43.8857H351.086V54.8571H362.057V65.8286H373.029V76.8H384V197.486ZM351.086 186.514V98.7429H340.114V87.7714H329.143V76.8H318.171V65.8286H307.2V54.8571H296.229V43.8857H285.257V32.9143H263.314V43.8857H252.343V54.8571H241.371V65.8286H230.4V76.8H219.429V87.7714H208.457V98.7429H175.543V87.7714H164.571V76.8H153.6V65.8286H142.629V54.8571H131.657V43.8857H120.686V32.9143H98.7429V43.8857H87.7714V54.8571H76.8V65.8286H65.8286V76.8H54.8571V87.7714H43.8857V98.7429H32.9143V131.657H43.8857V142.629H32.9143V153.6H43.8857V164.571H54.8571V175.543H43.8857V186.514H54.8571V197.486H65.8286V208.457H76.8V230.4H87.7714V241.371H76.8V252.343H87.7714V241.371H98.7429V252.343H109.714V263.314H131.657V274.286H142.629V285.257H153.6V307.2H142.629V318.171H153.6V307.2H164.571V318.171H175.543V329.143H186.514V318.171H175.543V307.2H197.486V329.143H208.457V340.114H219.429V329.143H208.457V318.171H219.429V307.2H230.4V296.229H241.371V285.257H252.343V274.286H263.314V263.314H274.286V252.343H285.257V241.371H296.229V230.4H307.2V219.429H318.171V208.457H329.143V197.486H340.114V186.514H351.086ZM197.486 362.057V351.086H186.514V362.057H197.486ZM164.571 340.114V329.143H153.6V340.114H164.571ZM131.657 296.229V285.257H120.686V296.229H131.657ZM43.8857 208.457V197.486H32.9143V208.457H43.8857ZM21.9429 175.543V164.571H10.9714V175.543H21.9429Z" fill="black"/>
<path d="M351.085 175.543V186.514H340.114V197.486H329.143V208.457H318.171V219.429H307.2V230.4H296.228V208.457H274.285V175.543H296.228V153.6H274.285V131.657H296.228V109.714H252.343V230.4H296.228V241.371H285.257V252.343H274.285V263.314H263.314V274.286H252.343V285.257H241.371V296.229H230.4V307.2H219.428V318.171H208.457V329.143H197.485V307.2H175.543V296.229H164.571V307.2H153.6V285.257H142.628V274.286H131.657V263.314H109.714V252.343H98.7426V241.371H87.7712V230.4H131.657V208.457H109.714V175.543H131.657V153.6H109.714V131.657H131.657V109.714H87.7712V230.4H76.7998V208.457H65.8283V197.486H54.8569V186.514H65.8283V175.543H54.8569V164.571H43.8855V153.6H54.8569V142.629H43.8855V131.657H32.9141V98.7429H43.8855V87.7715H54.8569V76.8H65.8283V65.8286H76.7998V54.8572H87.7712V43.8857H98.7426V32.9143H120.685V43.8857H131.657V54.8572H142.628V65.8286H153.6V76.8H164.571V87.7715H175.543V98.7429H208.457V87.7715H219.428V76.8H230.4V65.8286H241.371V54.8572H252.343V43.8857H263.314V32.9143H285.257V43.8857H296.228V54.8572H307.2V65.8286H318.171V76.8H329.143V87.7715H340.114V98.7429H351.085V175.543ZM296.228 76.8V65.8286H285.257V54.8572H274.285V65.8286H263.314V76.8H274.285V87.7715H285.257V76.8H296.228ZM241.371 230.4V208.457H219.428V109.714H197.485V230.4H241.371ZM230.4 263.314V252.343H219.428V241.371H208.457V252.343H197.485V263.314H208.457V274.286H219.428V263.314H230.4ZM186.514 230.4V208.457H164.571V109.714H142.628V230.4H186.514ZM76.7998 120.686V109.714H65.8283V98.7429H54.8569V109.714H43.8855V120.686H54.8569V131.657H65.8283V120.686H76.7998Z" fill="#EB6C33"/>
<path d="M296.228 219.429V230.4H285.257H274.286H263.314H252.343V219.429V208.457V197.486V186.514V175.543V164.571V153.6V142.629V131.657V120.686V109.714H263.314H274.286H285.257H296.228V120.686V131.657H285.257H274.286V142.629V153.6H285.257H296.228V164.571V175.543H285.257H274.286V186.514V197.486V208.457H285.257H296.228V219.429Z" fill="#78BBD5"/>
<path d="M296.228 65.8286H285.257V76.8H296.228V65.8286Z" fill="white"/>
<path d="M285.258 76.8H274.286V87.7715H285.258V76.8Z" fill="white"/>
<path d="M285.258 65.8286H274.286V76.8H285.258V65.8286Z" fill="white"/>
<path d="M285.258 54.8572H274.286V65.8286H285.258V54.8572Z" fill="white"/>
<path d="M274.286 65.8286H263.314V76.8H274.286V65.8286Z" fill="white"/>
<path d="M241.371 219.429V230.4H230.4H219.428H208.457H197.485V219.429V208.457V197.486V186.514V175.543V164.571V153.6V142.629V131.657V120.686V109.714H208.457H219.428V120.686V131.657V142.629V153.6V164.571V175.543V186.514V197.486V208.457H230.4H241.371V219.429Z" fill="#78BBD5"/>
<path d="M230.4 252.343H219.429V263.314H230.4V252.343Z" fill="white"/>
<path d="M219.428 329.143H208.457V340.114H219.428V329.143Z" fill="#EB6C33"/>
<path d="M219.428 263.314H208.457V274.286H219.428V263.314Z" fill="white"/>
<path d="M219.428 252.343H208.457V263.314H219.428V252.343Z" fill="white"/>
<path d="M219.428 241.371H208.457V252.343H219.428V241.371Z" fill="white"/>
<path d="M208.457 252.343H197.485V263.314H208.457V252.343Z" fill="white"/>
<path d="M197.486 351.086H186.515V362.057H197.486V351.086Z" fill="#EB6C33"/>
<path d="M186.514 318.171H175.543V329.143H186.514V318.171Z" fill="#EB6C33"/>
<path d="M186.515 219.429V230.4H175.543H164.572H153.6H142.629V219.429V208.457V197.486V186.514V175.543V164.571V153.6V142.629V131.657V120.686V109.714H153.6H164.572V120.686V131.657V142.629V153.6V164.571V175.543V186.514V197.486V208.457H175.543H186.515V219.429Z" fill="#78BBD5"/>
<path d="M175.543 307.2H164.571V318.171H175.543V307.2Z" fill="#EB6C33"/>
<path d="M175.543 296.229H164.571V307.2H175.543V296.229Z" fill="black"/>
<path d="M164.571 329.143H153.6V340.114H164.571V329.143Z" fill="#EB6C33"/>
<path d="M153.6 307.2H142.629V318.171H153.6V307.2Z" fill="#EB6C33"/>
<path d="M131.657 285.257H120.686V296.229H131.657V285.257Z" fill="#EB6C33"/>
<path d="M131.657 219.429V230.4H120.686H109.714H98.7429H87.7715V219.429V208.457V197.486V186.514V175.543V164.571V153.6V142.629V131.657V120.686V109.714H98.7429H109.714H120.686H131.657V120.686V131.657H120.686H109.714V142.629V153.6H120.686H131.657V164.571V175.543H120.686H109.714V186.514V197.486V208.457H120.686H131.657V219.429Z" fill="#78BBD5"/>
<path d="M87.7712 241.371H76.7998V252.343H87.7712V241.371Z" fill="#EB6C33"/>
<path d="M76.7996 109.714H65.8281V120.686H76.7996V109.714Z" fill="white"/>
<path d="M65.8289 175.543H54.8574V186.514H65.8289V175.543Z" fill="black"/>
<path d="M65.8289 120.686H54.8574V131.657H65.8289V120.686Z" fill="white"/>
<path d="M65.8289 109.714H54.8574V120.686H65.8289V109.714Z" fill="white"/>
<path d="M65.8289 98.7429H54.8574V109.714H65.8289V98.7429Z" fill="white"/>
<path d="M54.8572 175.543H43.8857V186.514H54.8572V175.543Z" fill="#EB6C33"/>
<path d="M54.8572 142.629H43.8857V153.6H54.8572V142.629Z" fill="black"/>
<path d="M54.8572 109.714H43.8857V120.686H54.8572V109.714Z" fill="white"/>
<path d="M43.8855 197.486H32.9141V208.457H43.8855V197.486Z" fill="#EB6C33"/>
<path d="M43.8855 142.629H32.9141V153.6H43.8855V142.629Z" fill="#EB6C33"/>
<path d="M21.9431 164.572H10.9717V175.543H21.9431V164.572Z" fill="#EB6C33"/>
</g>
<defs>
<clipPath id="clip0_3567_340494">
<rect width="384" height="384" fill="white"/>
</clipPath>
</defs>
</svg>
