<?xml version="1.0" encoding="utf-8"?>
<!-- Generator: Adobe Illustrator 26.5.0, SVG Export Plug-In . SVG Version: 6.00 Build 0)  -->
<svg version="1.1" xmlns="http://www.w3.org/2000/svg" xmlns:xlink="http://www.w3.org/1999/xlink" x="0px" y="0px"
	 viewBox="0 0 280 280" style="enable-background:new 0 0 280 280;" xml:space="preserve">
<style type="text/css">
	.st0{fill:#24573D;}
	.st1{fill:#FFFD89;}
	.st2{fill:#F9DE6B;}
	.st3{fill:none;stroke:#000000;stroke-width:0.25;stroke-miterlimit:10;}
	.st4{fill:#D7F850;}
	.st5{fill:#EC72F7;}
	.st6{fill:#FFFFFF;}
</style>
<g id="design">
</g>
<g id="guide">
	<g>
		<path d="M280,224v8h-8v8h-8v8h-8v8h-8v8h-8v8h-8v8h-8h-8h-8h-8h-8h-8h-8h-8h-8h-8h-8h-8h-8h-8h-8h-8h-8h-8h-8h-8h-8h-8h-8v-8h-8
			v-8h-8v-8h-8v-8h-8v-8H8v-8H0v-8v-8v-8v-8v-8v-8v-8v-8v-8v-8v-8v-8v-8v-8v-8v-8v-8v-8v-8v-8v-8v-8v-8h8v-8h8v-8h8v-8h8v-8h8V8h8V0
			h8h8h8h8h8h8h8h8h8h8h8h8h8h8h8h8h8h8h8h8h8h8h8v8h8v8h8v8h8v8h8v8h8v8h8v8v8v8v8v8v8v8v8v8v8v8v8v8v8v8v8v8v8v8v8v8V224z
			 M256,216v-8v-8v-8v-8v-8v-8v-8v-8v-8v-8v-8v-8v-8v-8v-8v-8v-8v-8v-8h-8v-8h-8v-8h-8v-8h-8v-8h-8v-8h-8h-8h-8h-8h-8h-8h-8h-8h-8
			h-8h-8h-8h-8h-8h-8h-8h-8h-8h-8v8h-8v8h-8v8h-8v8h-8v8h-8v8v8v8v8v8v8v8v8v8v8v8v8v8v8v8v8v8v8v8h8v8h8v8h8v8h8v8h8v8h8h8h8h8h8h8
			h8h8h8h8h8h8h8h8h8h8h8h8h8v-8h8v-8h8v-8h8v-8h8v-8H256z"/>
		<path class="st6" d="M256,208v8h-8v8h-8v8h-8v8h-8v8h-8v8h-8h-8h-8h-8h-8h-8h-8h-8h-8h-8h-8h-8h-8h-8h-8h-8h-8h-8h-8v-8h-8v-8h-8
			v-8h-8v-8h-8v-8h-8v-8v-8v-8v-8v-8v-8v-8v-8v-8v-8v-8v-8v-8v-8v-8v-8v-8v-8v-8h8v8h8v8v8v8h8v8v8v8h8v8v8v8h8v-8v-8v-8h8v-8v-8v-8
			h8v8v8v8h8v8v8v8h8v-8v-8v-8h8v-8v-8v-8h8v-8v-8v-8h8v-8h-8v8h-8v8v8v8h-8v8v8v8h-8v-8v-8v-8h-8v-8v-8v-8h-8v8v8v8h-8v8v8v8h-8v-8
			v-8v-8h-8v-8v-8v-8h-8v-8h-8v-8h8v-8h8v-8h8v-8h8v-8h8h8h8h8h8h8h8h8h8h8h8h8h8h8h8h8h8h8h8v8h8v8h8v8h8v8h8v8h-8h-8h-8h-8h-8h-8
			h-8v8h8h8h8v8v8v8v8v8v8v8v8v8h8v-8v-8v-8v-8v-8v-8v-8v-8v-8h8h8h8v-8h8v8v8v8v8v8v8v8v8v8v8v8v8v8v8v8v8v8V208z M248,160v-8h-8
			h-8h-8h-8h-8h-8h-8v8h8h8h8v8v8v8v8v8v8v8v8v8h8v-8v-8v-8v-8v-8v-8v-8v-8v-8h8h8H248z M184,224v-8v-8v-8v-8h-8v-8h-8h-8h-8h-8h-8
			v-8v-8v-8h8h8h8h8h8v8v8h8v-8v-8h-8v-8h-8h-8h-8h-8h-8v8h-8v8v8v8h8v8h8h8h8h8h8v8v8v8v8h-8h-8h-8h-8h-8v-8v-8h-8v8v8h8v8h8h8h8h8
			h8v-8H184z M184,144v-8v-8v-8v-8v-8h-8v-8h8v-8v-8v-8v-8h-8v8v8v8v8h-8h-8h-8h-8h-8v-8v-8v-8v-8h-8v8v8v8v8h8v8h-8v8v8v8v8v8h8v-8
			v-8v-8v-8v-8h8h8h8h8h8v8v8v8v8v8H184z M112,232v-8v-8v-8v-8v-8v-8v-8v-8v-8v-8h-8v8v8v8v8v8v8v8v8v8v8H112z M96,232v-8h-8h-8h-8
			h-8h-8v-8v-8v-8v-8v-8v-8v-8v-8v-8h-8v8v8v8v8v8v8v8v8v8h8v8h8h8h8h8H96z"/>
		<polygon points="248,152 248,160 240,160 232,160 224,160 224,168 224,176 224,184 224,192 224,200 224,208 224,216 224,224 
			224,232 216,232 216,224 216,216 216,208 216,200 216,192 216,184 216,176 216,168 216,160 208,160 200,160 192,160 192,152 
			200,152 208,152 216,152 224,152 232,152 240,152 		"/>
		<polygon points="248,64 248,72 240,72 232,72 224,72 224,80 224,88 224,96 224,104 224,112 224,120 224,128 224,136 224,144 
			216,144 216,136 216,128 216,120 216,112 216,104 216,96 216,88 216,80 216,72 208,72 200,72 192,72 192,64 200,64 208,64 216,64 
			224,64 232,64 240,64 		"/>
		<polygon points="184,216 184,224 176,224 176,216 176,208 176,200 176,192 184,192 184,200 184,208 		"/>
		<polygon points="184,168 184,176 176,176 176,168 176,160 184,160 		"/>
		<polygon points="184,136 184,144 176,144 176,136 176,128 176,120 176,112 176,104 184,104 184,112 184,120 184,128 		"/>
		<polygon points="184,88 184,96 176,96 176,88 176,80 176,72 176,64 184,64 184,72 184,80 		"/>
		<polygon points="176,224 176,232 168,232 160,232 152,232 144,232 136,232 136,224 144,224 152,224 160,224 168,224 		"/>
		<polygon points="176,184 176,192 168,192 160,192 152,192 144,192 136,192 136,184 144,184 152,184 160,184 168,184 		"/>
		<polygon points="176,152 176,160 168,160 160,160 152,160 144,160 136,160 136,152 144,152 152,152 160,152 168,152 		"/>
		<polygon points="176,96 176,104 168,104 160,104 152,104 144,104 136,104 136,96 144,96 152,96 160,96 168,96 		"/>
		<polygon points="136,216 136,224 128,224 128,216 128,208 136,208 		"/>
		<polygon points="136,176 136,184 128,184 128,176 128,168 128,160 136,160 136,168 		"/>
		<polygon points="136,136 136,144 128,144 128,136 128,128 128,120 128,112 128,104 136,104 136,112 136,120 136,128 		"/>
		<polygon points="136,88 136,96 128,96 128,88 128,80 128,72 128,64 136,64 136,72 136,80 		"/>
		<rect x="112" y="64" width="8" height="8"/>
		<polygon points="112,224 112,232 104,232 104,224 104,216 104,208 104,200 104,192 104,184 104,176 104,168 104,160 104,152 
			112,152 112,160 112,168 112,176 112,184 112,192 112,200 112,208 112,216 		"/>
		<polygon points="112,88 112,96 104,96 104,88 104,80 104,72 112,72 112,80 		"/>
		<polygon points="104,112 104,120 96,120 96,112 96,104 96,96 104,96 104,104 		"/>
		<polygon points="96,224 96,232 88,232 80,232 72,232 64,232 56,232 56,224 64,224 72,224 80,224 88,224 		"/>
		<polygon points="96,136 96,144 88,144 88,136 88,128 88,120 96,120 96,128 		"/>
		<polygon points="88,112 88,120 80,120 80,112 80,104 80,96 88,96 88,104 		"/>
		<polygon points="80,88 80,96 72,96 72,88 72,80 72,72 80,72 80,80 		"/>
		<polygon points="72,112 72,120 64,120 64,112 64,104 64,96 72,96 72,104 		"/>
		<polygon points="64,136 64,144 56,144 56,136 56,128 56,120 64,120 64,128 		"/>
		<polygon points="56,216 56,224 48,224 48,216 48,208 48,200 48,192 48,184 48,176 48,168 48,160 48,152 56,152 56,160 56,168 
			56,176 56,184 56,192 56,200 56,208 		"/>
		<polygon points="56,112 56,120 48,120 48,112 48,104 48,96 56,96 56,104 		"/>
		<polygon points="48,88 48,96 40,96 40,88 40,80 40,72 48,72 48,80 		"/>
		<rect x="32" y="64" width="8" height="8"/>
	</g>
</g>
</svg>
