<svg width="101" height="12" viewBox="0 0 101 12" fill="none" xmlns="http://www.w3.org/2000/svg">
<path d="M10.0451 10.4577H7.54376V7.90372H2.49988V10.4733L0 12V3.5371L1.88238 1.54517H8.16552L10.0493 3.5371L10.0451 10.4577ZM7.54376 5.9445V3.5371H2.49988V5.9445H7.54376Z" fill="white"/>
<path d="M21.3973 1.54102L19.5562 3.53295H13.9987V8.463H21.1127L19.2631 10.4549H13.374L11.4902 8.463V3.57564L13.374 1.54102H21.3973Z" fill="white"/>
<path d="M31.8627 1.54102L30.0215 3.53295H24.4583V8.463H31.5724L29.7227 10.4549H23.8408L21.957 8.463V3.57564L23.8408 1.54102H31.8627Z" fill="white"/>
<path d="M42.8341 8.43016L40.9517 10.4577H34.6714L32.7891 8.43301V0L35.2904 1.55371V8.46289H40.3328V1.54091H42.8341V8.43016Z" fill="white"/>
<path d="M54.4364 1.54102L52.5967 3.53295H47.0335V8.463H54.1476L52.2979 10.4549H46.4146L44.5322 8.463V3.57564L46.4146 1.54102H54.4364Z" fill="white"/>
<path d="M65.9435 10.4578H63.4422V8.27092L62.6895 7.48126H57.9075V10.4578L55.4033 12.0001V1.54102H64.0569L65.9392 4.29273L64.5093 6.36293L65.9421 7.90383L65.9435 10.4578ZM63.3711 4.46205L62.7194 3.53722H57.9075V5.4566H62.7038L63.3711 4.46205Z" fill="white"/>
<path d="M77.4064 10.4577H74.9065V7.90372H69.8626V10.4733L67.3613 12V3.5371L69.2437 1.54517H75.524L77.4064 3.5371V10.4577ZM74.9065 5.9445V3.5371H69.8626V5.9445H74.9065Z" fill="white"/>
<path d="M88.7584 8.46292L86.9159 10.4549H78.8457L84.3947 3.5343H80.6954L78.8585 1.54236H88.7627L83.2137 8.46434L88.7584 8.46292Z" fill="white"/>
<path d="M100.983 1.54102L96.6249 6.25337V10.4578L94.1251 12.0001V6.25337L89.7471 1.54102H92.7193L95.3757 4.41367L98.0307 1.54102H100.983Z" fill="white"/>
</svg>
