<svg width="35" height="13" viewBox="0 0 35 13" fill="none" xmlns="http://www.w3.org/2000/svg">
<path d="M8.08176 5.25723H5.07843V3.25612C5.07843 2.67385 5.04647 2.31079 4.98256 2.16693C4.91865 2.02308 4.77708 1.95098 4.55786 1.95064C4.31046 1.95064 4.1536 2.03832 4.08729 2.21369C4.02097 2.38905 3.98695 2.76821 3.98523 3.35116V8.69843C3.98523 9.25741 4.01856 9.62235 4.08522 9.79326C4.15188 9.96418 4.3017 10.0498 4.53467 10.0501C4.75801 10.0501 4.90422 9.96452 4.97329 9.79326C5.04235 9.62201 5.07671 9.22041 5.07637 8.58848V7.14121H8.0797V7.58972C8.0797 8.78132 7.99517 9.62629 7.82611 10.1246C7.65705 10.623 7.28389 11.0597 6.70663 11.4347C6.12868 11.8115 5.41654 11.9999 4.57023 11.9999C3.69059 11.9999 2.9654 11.8411 2.39466 11.5236C1.82392 11.2061 1.44595 10.7665 1.26075 10.2048C1.0752 9.64273 0.982422 8.79776 0.982422 7.66987V4.3042C0.982422 3.47498 1.01094 2.85281 1.06798 2.43769C1.13403 2.00183 1.30955 1.58969 1.57824 1.23959C1.86138 0.855635 2.25378 0.553369 2.75545 0.332793C3.25712 0.112216 3.8337 0.00209969 4.48519 0.0024422C5.36964 0.0024422 6.09947 0.173697 6.67467 0.516207C7.24988 0.858717 7.62785 1.2836 7.80859 1.79086C7.98898 2.30017 8.07935 3.09188 8.0797 4.16599L8.08176 5.25723Z" fill="white"/>
<path d="M23.5092 0.244629V2.54784L21.2728 9.45233H23.5092V11.756H17.9736V10.0848L20.2848 2.54784H18.2447V0.244629H23.5092Z" fill="white"/>
<path d="M31.4156 0.244629L29.2256 7.21693V11.756H26.4423V7.21693L24.3291 0.244629H27.0876C27.5192 2.49149 27.7623 4.00351 27.8169 4.78066C27.9832 3.55276 28.2621 2.04075 28.6534 0.244629H31.4156Z" fill="white"/>
<path d="M6.67663 0.513765C6.10142 0.172968 5.37159 0.00171255 4.48714 0C3.83428 0 3.2577 0.110117 2.7574 0.330351C2.25711 0.550584 1.86471 0.854391 1.5802 1.24177C1.31151 1.59188 1.13598 2.00401 1.06993 2.43987C1.01324 2.85499 0.984719 3.47716 0.984375 4.30638V7.66948C0.984375 8.79771 1.07715 9.64269 1.2627 10.2044C1.44825 10.7661 1.82622 11.2057 2.39661 11.5232C2.96701 11.8407 3.6922 11.9995 4.57218 11.9995C5.4185 11.9995 6.13063 11.8111 6.70858 11.4344C7.28653 11.0576 7.6597 10.6209 7.82806 10.1243C7.99712 9.6259 8.08165 8.78093 8.08165 7.58934V7.14082H5.07884V8.58861C5.07884 9.22054 5.04448 9.62213 4.97575 9.79339C4.90703 9.96464 4.76083 10.0503 4.53714 10.0503C4.30348 10.0503 4.15367 9.96464 4.08769 9.79339C4.02172 9.62213 3.9877 9.25719 3.98564 8.69856V3.35129C3.98564 2.76902 4.01897 2.38986 4.08563 2.21381C4.15229 2.03776 4.30915 1.95008 4.55621 1.95077C4.77474 1.95077 4.91631 2.02286 4.98091 2.16706C5.04551 2.31126 5.07746 2.67432 5.07678 3.25624V5.25736H8.0801V4.16355C8.0801 3.08876 7.98973 2.29704 7.80899 1.78842C7.62825 1.27979 7.2508 0.854905 6.67663 0.513765Z" fill="white"/>
<path d="M18.2447 2.54784H20.2848L17.9736 10.0848V11.756H23.5092V9.45233H21.2728L23.5092 2.54784V0.244629H18.2447V2.54784Z" fill="white"/>
<path d="M28.6564 0.244629C28.2653 2.03972 27.9865 3.55173 27.8198 4.78066C27.7645 4.00385 27.5214 2.49184 27.0905 0.244629H24.332L26.4452 7.21693V11.756H29.2285V7.21693L31.4154 0.244629H28.6564Z" fill="white"/>
<path d="M16.2592 5.19321C16.4828 4.88496 16.5947 4.28282 16.5947 3.38682C16.5947 2.40621 16.4365 1.69173 16.12 1.24339C15.8035 0.795043 15.3946 0.516582 14.8933 0.408007C14.3913 0.299088 13.4319 0.244629 12.0152 0.244629H9.88965V11.8151C10.3762 11.8151 10.6221 10.9494 11.0184 10.9494C11.4148 10.9494 11.4421 11.8151 11.8663 11.8151C12.2905 11.8151 12.3868 10.952 12.8966 10.952H13.1368V6.83007H13.1996C13.2629 6.83007 13.3256 6.84249 13.3841 6.86663C13.4425 6.89078 13.4957 6.92616 13.5404 6.97077C13.5852 7.01537 13.6207 7.06833 13.6449 7.12661C13.6691 7.18489 13.6816 7.24736 13.6816 7.31044V10.952H13.8094C14.2836 10.952 14.3707 11.8177 14.7639 11.8177C15.1572 11.8177 15.1825 10.952 15.5494 10.952C15.9164 10.952 16.1437 11.8177 16.5947 11.8177V10.4382V8.38626C16.5895 7.65363 16.565 7.19724 16.521 7.01708C16.4715 6.81157 16.3444 6.58517 16.1396 6.33788C15.9348 6.09059 15.5348 5.89382 14.9397 5.74757C15.596 5.68592 16.0358 5.50113 16.2592 5.19321Z" stroke="white" stroke-width="0.406255" stroke-miterlimit="10"/>
<path d="M11.9405 4.55981C12.4685 4.55981 12.8966 3.90701 12.8966 3.10174C12.8966 2.29647 12.4685 1.64368 11.9405 1.64368C11.4124 1.64368 10.9844 2.29647 10.9844 3.10174C10.9844 3.90701 11.4124 4.55981 11.9405 4.55981Z" fill="white"/>
<path d="M11.5452 3.79161C11.8398 3.79161 12.0786 3.48154 12.0786 3.09905C12.0786 2.71656 11.8398 2.40649 11.5452 2.40649C11.2506 2.40649 11.0117 2.71656 11.0117 3.09905C11.0117 3.48154 11.2506 3.79161 11.5452 3.79161Z" fill="#231815"/>
<path d="M11.7863 3.03742C11.9158 3.03742 12.0208 2.92034 12.0208 2.77591C12.0208 2.63148 11.9158 2.5144 11.7863 2.5144C11.6568 2.5144 11.5518 2.63148 11.5518 2.77591C11.5518 2.92034 11.6568 3.03742 11.7863 3.03742Z" fill="white"/>
<path d="M14.5362 4.55981C15.0642 4.55981 15.4923 3.90701 15.4923 3.10174C15.4923 2.29647 15.0642 1.64368 14.5362 1.64368C14.0081 1.64368 13.5801 2.29647 13.5801 3.10174C13.5801 3.90701 14.0081 4.55981 14.5362 4.55981Z" fill="white"/>
<path d="M14.1409 3.79161C14.4355 3.79161 14.6743 3.48154 14.6743 3.09905C14.6743 2.71656 14.4355 2.40649 14.1409 2.40649C13.8463 2.40649 13.6074 2.71656 13.6074 3.09905C13.6074 3.48154 13.8463 3.79161 14.1409 3.79161Z" fill="#231815"/>
<path d="M14.382 3.03742C14.5115 3.03742 14.6165 2.92034 14.6165 2.77591C14.6165 2.63148 14.5115 2.5144 14.382 2.5144C14.2525 2.5144 14.1475 2.63148 14.1475 2.77591C14.1475 2.92034 14.2525 3.03742 14.382 3.03742Z" fill="white"/>
<path d="M33.2798 9.78639H30.5601V9.08142H33.2798V9.78639Z" fill="white"/>
<path d="M31.6873 11.6802C31.414 11.6802 31.2203 11.6736 31.106 11.6602C30.9929 11.6479 30.8893 11.6077 30.7953 11.5396C30.7012 11.4726 30.6289 11.3816 30.5785 11.2666C30.5282 11.1517 30.503 11.0177 30.503 10.8648C30.503 10.7196 30.5265 10.589 30.5735 10.4729C30.6217 10.3579 30.6933 10.2653 30.7885 10.195C30.8837 10.1246 30.9873 10.0828 31.0993 10.0694C31.2113 10.056 31.4073 10.0493 31.6873 10.0493H32.1526C32.4259 10.0493 32.619 10.0554 32.7322 10.0677C32.8464 10.0811 32.9505 10.1213 33.0446 10.1883C33.1387 10.2564 33.2109 10.3479 33.2613 10.4629C33.3117 10.5779 33.3369 10.7118 33.3369 10.8648C33.3369 11.0099 33.3128 11.1399 33.2647 11.2549C33.2176 11.371 33.1465 11.4642 33.0513 11.5346C32.9561 11.6049 32.8525 11.6468 32.7406 11.6602C32.6286 11.6736 32.4326 11.6802 32.1526 11.6802H31.6873ZM32.581 10.9753C32.7075 10.9753 32.7882 10.968 32.8229 10.9535C32.8587 10.9401 32.8766 10.9117 32.8766 10.8681C32.8766 10.8313 32.8621 10.8028 32.8329 10.7827C32.805 10.7637 32.721 10.7542 32.581 10.7542H31.311C31.1531 10.7542 31.0556 10.7604 31.0187 10.7727C30.9817 10.7861 30.9632 10.8162 30.9632 10.8631C30.9632 10.9111 30.9845 10.9418 31.0271 10.9552C31.0696 10.9686 31.171 10.9753 31.3311 10.9753H32.581Z" fill="white"/>
<path d="M31.2134 8.03113H30.5732V8.66922H31.2134V8.03113Z" fill="white"/>
</svg>
