<svg width="132" height="40" viewBox="0 0 132 40" fill="none" xmlns="http://www.w3.org/2000/svg">
<path d="M62.6577 0.359375H65.6054L68.327 15.4212H68.3913L71.1129 0.359375H74.0606L69.3643 23.6504H67.3564L62.6601 0.359375H62.6577Z" fill="white"/>
<path d="M80.1694 0.359803H87.7491V3.11238H83.1171V9.72142H87.5874V12.474H83.1171V20.8959H87.7491V23.6485H80.1694V0.357422V0.359803Z" fill="white"/>
<path d="M94.8809 0.359375H97.8285C100.291 0.359375 102.265 0.682927 104.404 3.34034C105.02 4.1183 105.603 5.80267 105.603 7.55128C105.603 8.9121 105.377 10.3372 104.599 11.5362C103.562 13.1564 102.299 13.8701 100.874 14.4196L105.442 23.6504H102.17L98.0878 14.7432H97.8285V23.6504H94.8809V0.359375V0.359375ZM97.8285 11.9882C98.8325 11.9882 99.934 11.7289 100.84 11.177C101.618 10.7226 102.525 9.36175 102.525 7.54891C102.525 5.73606 101.649 4.311 100.484 3.63059C99.7056 3.17619 98.4114 3.11195 97.8261 3.11195V11.9882H97.8285Z" fill="white"/>
<path d="M110.156 20.1197C111.453 20.8311 112.326 21.2522 113.299 21.2522C114.691 21.2522 116.021 20.41 116.021 18.3045C116.021 17.3006 115.566 15.1951 113.592 12.0523C111.941 9.46154 110.677 7.28945 110.677 5.08644C110.677 2.3981 112.492 0 115.535 0C115.99 0 116.994 0.0642342 118.385 0.906423V3.659C117.577 3.26884 116.765 2.75258 115.826 2.75258C114.627 2.75258 113.753 3.72561 113.753 5.08406C113.753 6.67089 114.855 7.96749 116.054 10.299C117.381 12.9231 119.099 15.5472 119.099 18.2998C119.099 21.7328 116.444 24 113.625 24C112.167 24 111.065 23.4504 110.159 22.8676V20.115L110.156 20.1197Z" fill="white"/>
<path d="M123.748 0.359803H131.327V3.11238H126.695V9.72142H131.165V12.474H126.695V20.8959H131.327V23.6485H123.748V0.357422V0.359803Z" fill="white"/>
<path d="M55.9125 13.2756H56.4431V10.1328H55.9125L51.252 11.6055V11.8029L55.9125 13.2756Z" fill="#16ED99"/>
<path d="M53.1484 23.4047V23.6283H56.4434V19.748H56.2555L53.1484 23.4047Z" fill="#16ED99"/>
<path d="M53.1484 0.580626V0.359375H56.4434V4.23725H56.2555L53.1484 0.580626Z" fill="#16ED99"/>
<path d="M48.8952 0.359375H45.938V23.6504H48.8952V0.359375Z" fill="white"/>
<path d="M37.8345 23.4047V23.6283H41.1295V19.748H40.9439L37.8345 23.4047Z" fill="#16ED99"/>
<path d="M33.5832 0.359375H30.626V23.6504H33.5832V0.359375Z" fill="white"/>
<path d="M22.5229 23.4047V23.6283H25.8179V19.748H25.6324L22.5229 23.4047Z" fill="#16ED99"/>
<path d="M18.2687 0.359375H15.3115V23.6504H18.2687V0.359375Z" fill="white"/>
<path d="M9.97553 13.2756H10.5061V10.1328H9.97553L5.31494 11.6055V11.8029L9.97553 13.2756Z" fill="#16ED99"/>
<path d="M7.21143 23.4047V23.6283H10.5064V19.748H10.3185L7.21143 23.4047Z" fill="#16ED99"/>
<path d="M7.21143 0.580626V0.359375H10.5064V4.23725H10.3185L7.21143 0.580626Z" fill="#16ED99"/>
<path d="M2.95719 0.359375H0V23.6504H2.95719V0.359375Z" fill="white"/>
<path d="M13.0139 37V31.4H14.8779C15.3045 31.4 15.6539 31.4773 15.9259 31.632C16.1979 31.7867 16.3979 31.992 16.5259 32.248C16.6539 32.504 16.7179 32.7867 16.7179 33.096C16.7179 33.4053 16.6539 33.688 16.5259 33.944C16.3979 34.2 16.1979 34.4053 15.9259 34.56C15.6539 34.7147 15.3045 34.792 14.8779 34.792H13.6859V37H13.0139ZM13.6859 34.176H14.8619C15.2565 34.176 15.5499 34.0773 15.7419 33.88C15.9339 33.6773 16.0299 33.416 16.0299 33.096C16.0299 32.776 15.9339 32.5147 15.7419 32.312C15.5499 32.1093 15.2565 32.008 14.8619 32.008H13.6859V34.176ZM22.6188 37.096C22.1654 37.096 21.7761 36.976 21.4508 36.736C21.1254 36.496 20.8748 36.16 20.6988 35.728C20.5281 35.2907 20.4428 34.7813 20.4428 34.2C20.4428 33.6187 20.5281 33.112 20.6988 32.68C20.8748 32.2427 21.1254 31.904 21.4508 31.664C21.7761 31.424 22.1654 31.304 22.6188 31.304C23.0721 31.304 23.4614 31.424 23.7868 31.664C24.1121 31.904 24.3601 32.2427 24.5308 32.68C24.7068 33.112 24.7948 33.6187 24.7948 34.2C24.7948 34.7813 24.7068 35.2907 24.5308 35.728C24.3601 36.16 24.1121 36.496 23.7868 36.736C23.4614 36.976 23.0721 37.096 22.6188 37.096ZM22.6188 36.464C23.0614 36.464 23.4188 36.2667 23.6908 35.872C23.9681 35.4773 24.1068 34.92 24.1068 34.2C24.1068 33.48 23.9681 32.9227 23.6908 32.528C23.4188 32.1333 23.0614 31.936 22.6188 31.936C22.1708 31.936 21.8108 32.1333 21.5388 32.528C21.2668 32.9227 21.1308 33.48 21.1308 34.2C21.1308 34.92 21.2668 35.4773 21.5388 35.872C21.8108 36.2667 22.1708 36.464 22.6188 36.464ZM28.8876 37L28.0316 31.4H28.7116L29.2796 35.72L30.0716 31.4H30.7596L31.5516 35.72L32.1196 31.4H32.7996L31.9436 37H31.1756L30.4156 32.696L29.6556 37H28.8876ZM36.5005 37V31.4H39.9965V32.008H37.1725V33.872H39.7565V34.48H37.1725V36.392H39.9965V37H36.5005ZM44.2654 37V31.4H45.9854C46.4174 31.4 46.772 31.472 47.0494 31.616C47.332 31.76 47.5427 31.9573 47.6814 32.208C47.82 32.4533 47.8894 32.7333 47.8894 33.048C47.8894 33.416 47.7934 33.7413 47.6014 34.024C47.4147 34.3013 47.1267 34.496 46.7374 34.608L47.9534 37H47.1534L46.0254 34.704H45.9854H44.9374V37H44.2654ZM44.9374 34.088H45.9614C46.388 34.088 46.7 33.992 46.8974 33.8C47.1 33.6027 47.2014 33.352 47.2014 33.048C47.2014 32.728 47.1027 32.4747 46.9054 32.288C46.7134 32.1013 46.396 32.008 45.9534 32.008H44.9374V34.088ZM52.0943 37V31.4H55.5903V32.008H52.7663V33.872H55.3503V34.48H52.7663V36.392H55.5903V37H52.0943ZM59.7311 37V31.4H60.9071C61.8245 31.4 62.5018 31.6507 62.9391 32.152C63.3818 32.6533 63.6031 33.336 63.6031 34.2C63.6031 35.064 63.3818 35.7467 62.9391 36.248C62.5018 36.7493 61.8245 37 60.9071 37H59.7311ZM60.4031 36.384H60.8911C61.3818 36.384 61.7738 36.2933 62.0671 36.112C62.3658 35.9307 62.5818 35.6773 62.7151 35.352C62.8485 35.0267 62.9151 34.6427 62.9151 34.2C62.9151 33.7573 62.8485 33.3733 62.7151 33.048C62.5818 32.7227 62.3658 32.4693 62.0671 32.288C61.7738 32.1067 61.3818 32.016 60.8911 32.016H60.4031V36.384ZM75.3249 37V31.4H77.1889C77.7702 31.4 78.2075 31.5333 78.5009 31.8C78.7942 32.0667 78.9409 32.408 78.9409 32.824C78.9409 33.1493 78.8529 33.4187 78.6769 33.632C78.5009 33.84 78.3035 33.9867 78.0849 34.072V34.128C78.3462 34.2133 78.5755 34.368 78.7729 34.592C78.9702 34.816 79.0689 35.104 79.0689 35.456C79.0689 35.744 78.9969 36.0053 78.8529 36.24C78.7142 36.4693 78.5089 36.6533 78.2369 36.792C77.9702 36.9307 77.6422 37 77.2529 37H75.3249ZM75.9969 33.816H77.1409C77.4982 33.816 77.7702 33.7387 77.9569 33.584C78.1489 33.424 78.2449 33.1947 78.2449 32.896C78.2449 32.6133 78.1515 32.3947 77.9649 32.24C77.7782 32.0853 77.4955 32.008 77.1169 32.008H75.9969V33.816ZM75.9969 36.384H77.1809C77.5649 36.384 77.8609 36.2987 78.0689 36.128C78.2769 35.952 78.3809 35.7067 78.3809 35.392C78.3809 35.0773 78.2715 34.8347 78.0529 34.664C77.8342 34.488 77.5382 34.4 77.1649 34.4H75.9969V36.384ZM84.6578 37V34.8L82.8418 31.4H83.6018L84.9938 34.12L86.3858 31.4H87.1458L85.3298 34.8V37H84.6578ZM98.4515 37L100.204 31.4H100.98L102.724 37H101.988L101.58 35.608H99.5955L99.1875 37H98.4515ZM100.572 32.344L99.7635 35.048H101.412L100.604 32.344H100.572ZM106.248 37L108 31.4H108.776L110.52 37H109.784L109.376 35.608H107.392L106.984 37H106.248ZM108.368 32.344L107.56 35.048H109.208L108.4 32.344H108.368ZM114.109 37L115.797 34.2L114.109 31.4H114.877L116.197 33.592L117.485 31.4H118.253L116.557 34.192L118.253 37H117.485L116.157 34.8L114.877 37H114.109Z" fill="white"/>
</svg>
