<svg width="54" height="21" viewBox="0 0 54 21" fill="none" xmlns="http://www.w3.org/2000/svg">
<path d="M9.12885 0.5C9.1447 2.21131 9.1447 3.90774 9.1447 5.61905C9.1447 5.67857 9.06548 5.73809 9.03379 5.79762C8.96514 5.73428 8.9112 5.65828 8.87536 5.5744C8.76445 4.80059 8.71692 3.99702 8.5268 3.23809C8.13071 1.63095 7.24348 0.961309 5.48485 0.842262C5.17903 0.822286 4.8723 0.817319 4.56593 0.827381V10.0833C5.34226 10.0982 6.00769 9.9494 6.48299 9.30952C6.81358 8.85585 7.00538 8.32571 7.03751 7.77678C7.0692 7.41964 7.08504 7.0625 7.08504 6.70535C7.10089 6.5119 7.16426 6.46726 7.37023 6.54166V13.9375C7.16426 14.0268 7.11673 13.9673 7.08504 13.7589C7.06343 13.1696 6.99458 12.5826 6.87908 12.003C6.60974 10.9167 5.84925 10.3958 4.74021 10.4107H4.56593V20.1428C5.50069 20.1577 6.41962 20.1726 7.25932 19.7559C8.09903 19.3393 8.47927 18.8631 8.65355 18.119C8.82783 17.375 8.93873 16.4226 9.08132 15.5744C9.08406 15.4795 9.09466 15.385 9.11301 15.2917C9.12885 15.247 9.19223 15.2173 9.22391 15.1726C9.2556 15.128 9.33482 15.247 9.3665 15.3065C9.38079 15.3447 9.3862 15.3853 9.38235 15.4256C9.38235 17.0476 9.38235 18.6548 9.3665 20.2619C9.36804 20.3267 9.36273 20.3915 9.35066 20.4553H0.351562V20.2024H1.98344V0.8125H0.351562V0.5H9.12885Z" fill="white"/>
<path d="M53.4392 0.5C53.4392 0.678571 53.455 0.857143 53.455 1.03571V5.42559C53.4346 5.55525 53.3918 5.68091 53.3283 5.79762C53.2643 5.67453 53.2164 5.54461 53.1857 5.41071C53.0748 4.71131 53.0273 4.0119 52.8688 3.32738C52.4886 1.70536 51.6489 1.02083 49.8902 0.842262C49.5575 0.8125 49.2248 0.842262 48.8604 0.842262V10.0833C49.5575 10.0833 50.1754 10.0089 50.6507 9.48809C51.126 8.96726 51.332 8.08928 51.3795 7.30059C51.3954 7.04762 51.3795 6.79464 51.3795 6.57143C51.6806 6.42262 51.6806 6.57143 51.6806 6.75V13.6994C51.6806 13.8631 51.7122 14.0565 51.4429 13.9524C51.3795 13.4018 51.3795 12.8363 51.2528 12.3155C51.1481 11.8759 50.9603 11.4576 50.6983 11.0804C50.2863 10.4702 49.6051 10.3809 48.8604 10.4256V20.1577C49.811 20.1726 50.7458 20.1726 51.6013 19.7559C52.4569 19.3393 52.9639 18.4167 53.154 17.4643C53.2807 16.7798 53.3283 16.0952 53.4075 15.3958C53.4375 15.3204 53.4803 15.25 53.5342 15.1875C53.5818 15.2619 53.6768 15.3363 53.6768 15.4107C53.6927 17.0625 53.6768 18.6994 53.6768 20.3363C53.6777 20.3765 53.6724 20.4166 53.661 20.4553H44.7253C44.6302 20.2768 44.6777 20.1875 44.9154 20.1875H46.2779V0.827381H44.6777L44.7253 0.5H53.4392Z" fill="white"/>
<path d="M21.0095 0.5L21.0729 0.797619H19.6153V20.1875C20.8669 20.2024 22.1186 20.1726 23.0692 19.2351C23.6079 18.6994 23.7821 17.9851 23.9089 17.3006C24.0356 16.6161 24.0515 16.0655 24.1307 15.4405C24.1651 15.3471 24.219 15.2611 24.2891 15.1875L24.3842 15.247V20.5H15.4326V20.2173H17.017V0.8125H15.4326V0.5H21.0095Z" fill="white"/>
<path d="M35.5419 0.5C35.5218 0.598114 35.5112 0.697721 35.5102 0.797619H34.0684V20.1875C35.1616 20.1875 36.2231 20.1875 37.1579 19.5476C37.7916 19.1161 38.0927 18.506 38.2353 17.8512C38.3779 17.1964 38.4729 16.2589 38.5838 15.4702C38.5997 15.3214 38.5838 15.1577 38.8373 15.247V20.5H29.8857V20.2173H31.4859V0.8125H29.9016V0.5H35.5419Z" fill="white"/>
</svg>
