<svg width="108" height="44" viewBox="0 0 108 44" fill="none" xmlns="http://www.w3.org/2000/svg">
<g clip-path="url(#clip0_129_20896)">
<path d="M17.7754 0.000488281C17.8075 3.69033 17.8075 7.34808 17.8075 11.0379C17.8075 11.1663 17.6471 11.2946 17.5829 11.4229C17.4439 11.2864 17.3346 11.1225 17.262 10.9417C17.0374 9.27322 16.9412 7.5406 16.5561 5.90423C15.754 2.43899 13.9572 0.995141 10.3957 0.738456C9.77638 0.695387 9.15522 0.684677 8.53476 0.706371V20.6636C10.107 20.6957 11.4545 20.3748 12.4171 18.9951C13.0866 18.017 13.475 16.8739 13.5401 15.6903C13.6043 14.9203 13.6364 14.1502 13.6364 13.3802C13.6684 12.9631 13.7968 12.8668 14.2139 13.0272V28.9738C13.7968 29.1663 13.7005 29.0379 13.6364 28.5887C13.5926 27.318 13.4532 26.0524 13.2193 24.8026C12.6738 22.4604 11.1337 21.3374 8.8877 21.3695H8.53476V42.3534C10.4278 42.3855 12.2888 42.4176 13.9893 41.5192C15.6898 40.6208 16.4599 39.5941 16.8128 37.9898C17.1658 36.3855 17.3904 34.332 17.6791 32.5032C17.6847 32.2986 17.7062 32.0948 17.7433 31.8935C17.7754 31.7973 17.9037 31.7331 17.9679 31.6369C18.0321 31.5406 18.1925 31.7973 18.2567 31.9256C18.2856 32.0079 18.2966 32.0954 18.2888 32.1823C18.2888 35.6796 18.2888 39.1449 18.2567 42.6101C18.2598 42.7499 18.249 42.8896 18.2246 43.0272H0V42.4818H3.30481V0.674285H0V0.000488281H17.7754Z" fill="black"/>
<path d="M107.519 0.000488281C107.519 0.385515 107.551 0.770542 107.551 1.15557V10.6208C107.509 10.9004 107.423 11.1713 107.294 11.4229C107.164 11.1576 107.068 10.8774 107.005 10.5887C106.781 9.0807 106.684 7.57268 106.364 6.09675C105.594 2.59942 103.893 1.12348 100.332 0.738456C99.6577 0.674285 98.9839 0.738456 98.2459 0.738456V20.6636C99.6577 20.6636 100.909 20.5032 101.872 19.3802C102.834 18.2572 103.251 16.3641 103.348 14.6636C103.38 14.1181 103.348 13.5727 103.348 13.0914C103.957 12.7705 103.957 13.0914 103.957 13.4764V28.4604C103.957 28.8133 104.021 29.2304 103.476 29.0058C103.348 27.8187 103.348 26.5994 103.091 25.4764C102.879 24.5287 102.498 23.6267 101.968 22.8133C101.134 21.4978 99.754 21.3053 98.2459 21.4016V42.3855C100.171 42.4176 102.064 42.4176 103.797 41.5192C105.529 40.6208 106.556 38.6315 106.941 36.578C107.198 35.1021 107.294 33.6262 107.454 32.1181C107.515 31.9555 107.602 31.8038 107.711 31.6689C107.807 31.8294 108 31.9898 108 32.1502C108.032 35.7117 108 39.2411 108 42.7705C108.002 42.8572 107.991 42.9437 107.968 43.0272H89.8716C89.6791 42.6422 89.7753 42.4497 90.2566 42.4497H93.016V0.706371H89.7753L89.8716 0.000488281H107.519Z" fill="black"/>
<path d="M41.8395 0.000488281L41.9678 0.6422H39.016V42.4497C41.5507 42.4818 44.0855 42.4176 46.0106 40.3962C47.1015 39.2411 47.4545 37.701 47.7112 36.2251C47.9678 34.7492 47.9999 33.562 48.1604 32.2144C48.23 32.0131 48.3391 31.8276 48.4812 31.6689L48.6737 31.7973V43.1235H30.5454V42.5139H33.7539V0.674285H30.5454V0.000488281H41.8395Z" fill="black"/>
<path d="M71.262 0.000488281C71.2214 0.212036 71.1999 0.426805 71.1978 0.6422H68.278V42.4497C70.4919 42.4497 72.6417 42.4497 74.5347 41.07C75.8181 40.1395 76.4278 38.824 76.7165 37.4123C77.0053 36.0005 77.1978 33.9791 77.4224 32.2786C77.4545 31.9577 77.4224 31.6048 77.9358 31.7973V43.1235H59.8074V42.5139H63.0481V0.674285H59.8395V0.000488281H71.262Z" fill="black"/>
</g>
<defs>
<clipPath id="clip0_129_20896">
<rect width="108" height="43.123" fill="white"/>
</clipPath>
</defs>
</svg>
