<svg width="165" height="30" viewBox="0 0 165 30" fill="none" xmlns="http://www.w3.org/2000/svg">
<path d="M78.3218 0.451172H82.0064L85.4084 19.2785H85.4887L88.8908 0.451172H92.5754L86.705 29.565H84.1951L78.3248 0.451172H78.3218Z" fill="white"/>
<path d="M100.212 0.452195H109.687V3.89292H103.897V12.1542H109.485V15.5949H103.897V26.1223H109.687V29.563H100.212V0.449219V0.452195Z" fill="white"/>
<path d="M118.601 0.451172H122.286C125.364 0.451172 127.832 0.855612 130.505 4.17738C131.276 5.14982 132.004 7.25529 132.004 9.44105C132.004 11.1421 131.722 12.9234 130.749 14.4222C129.453 16.4474 127.873 17.3396 126.092 18.0265L131.802 29.565H127.713L122.61 18.4309H122.286V29.565H118.601V0.451172ZM122.286 14.9873C123.541 14.9873 124.917 14.6631 126.051 13.9732C127.023 13.4052 128.156 11.7041 128.156 9.43808C128.156 7.17203 127.062 5.3907 125.604 4.54019C124.632 3.97219 123.014 3.89189 122.283 3.89189V14.9873H122.286Z" fill="white"/>
<path d="M137.695 25.1497C139.316 26.0389 140.407 26.5652 141.624 26.5652C143.363 26.5652 145.026 25.5125 145.026 22.8806C145.026 21.6257 144.458 18.9939 141.99 15.0654C139.926 11.8269 138.347 9.11182 138.347 6.35805C138.347 2.99762 140.616 0 144.419 0C144.987 0 146.242 0.0802927 147.982 1.13303V4.57375C146.971 4.08604 145.957 3.44072 144.782 3.44072C143.283 3.44072 142.192 4.65702 142.192 6.35507C142.192 8.33862 143.569 9.95936 145.067 12.8737C146.727 16.1538 148.874 19.434 148.874 22.8747C148.874 27.1659 145.555 30 142.031 30C140.208 30 138.831 29.313 137.698 28.5845V25.1437L137.695 25.1497Z" fill="white"/>
<path d="M154.684 0.452195H164.159V3.89292H158.369V12.1542H163.957V15.5949H158.369V26.1223H164.159V29.563H154.684V0.449219V0.452195Z" fill="white"/>
<path d="M69.8907 16.5964H70.5538V12.668H69.8907L64.0649 14.5088V14.7556L69.8907 16.5964Z" fill="#16ED99"/>
<path d="M66.4351 29.2544V29.5339H70.5538V24.6836H70.3189L66.4351 29.2544Z" fill="#16ED99"/>
<path d="M66.4351 0.727736V0.451172H70.5538V5.29851H70.3189L66.4351 0.727736Z" fill="#16ED99"/>
<path d="M61.1188 0.451172H57.4224V29.565H61.1188V0.451172Z" fill="white"/>
<path d="M47.293 29.2544V29.5339H51.4117V24.6836H51.1798L47.293 29.2544Z" fill="#16ED99"/>
<path d="M41.9787 0.451172H38.2822V29.565H41.9787V0.451172Z" fill="white"/>
<path d="M28.1538 29.2544V29.5339H32.2726V24.6836H32.0406L28.1538 29.2544Z" fill="#16ED99"/>
<path d="M22.8361 0.451172H19.1396V29.565H22.8361V0.451172Z" fill="white"/>
<path d="M12.4693 16.5964H13.1325V12.668H12.4693L6.64355 14.5088V14.7556L12.4693 16.5964Z" fill="#16ED99"/>
<path d="M9.01367 29.2544V29.5339H13.1324V24.6836H12.8975L9.01367 29.2544Z" fill="#16ED99"/>
<path d="M9.01367 0.727736V0.451172H13.1324V5.29851H12.8975L9.01367 0.727736Z" fill="#16ED99"/>
<path d="M3.69649 0.451172H0V29.565H3.69649V0.451172Z" fill="white"/>
</svg>
