<svg width="25" height="24" viewBox="0 0 25 24" fill="none" xmlns="http://www.w3.org/2000/svg">
<path d="M24.5 12C24.5 18.624 19.124 24 12.5 24C5.876 24 0.5 18.624 0.5 12C0.5 5.376 5.876 0 12.5 0C19.124 0 24.5 5.376 24.5 12Z" fill="#2081E2"/>
<path d="M6.42752 12.4079L6.47553 12.3359L9.59553 7.46392C9.64353 7.39192 9.73952 7.39192 9.78752 7.48792C10.3155 8.66392 10.7475 10.1039 10.5555 11.0159C10.4595 11.3999 10.2195 11.9039 9.93153 12.3599C9.90753 12.4319 9.85953 12.5039 9.81153 12.5519C9.78753 12.5759 9.76353 12.5999 9.71553 12.5999H6.49953C6.42753 12.5759 6.37952 12.4799 6.42752 12.4079Z" fill="white"/>
<path d="M20.3236 13.32V14.088C20.3236 14.136 20.2996 14.16 20.2516 14.184C20.0116 14.28 19.1716 14.664 18.8356 15.144C17.9476 16.368 17.2756 18.12 15.7876 18.12H9.52362C7.31562 18.12 5.51562 16.32 5.51562 14.088V14.016C5.51562 13.968 5.56363 13.92 5.61163 13.92H9.13962C9.21162 13.92 9.25962 13.992 9.25962 14.04C9.23562 14.256 9.28362 14.496 9.37962 14.712C9.59562 15.144 10.0276 15.384 10.4836 15.384H12.2116V14.04H10.5076C10.4116 14.04 10.3636 13.944 10.4116 13.872C10.4356 13.848 10.4596 13.824 10.4836 13.776C10.6516 13.536 10.8676 13.2 11.1076 12.792C11.2756 12.528 11.4196 12.216 11.5396 11.928C11.5636 11.88 11.5876 11.832 11.6116 11.76C11.6356 11.664 11.6836 11.568 11.7076 11.496C11.7316 11.424 11.7556 11.352 11.7796 11.28C11.8276 11.04 11.8516 10.776 11.8516 10.488C11.8516 10.392 11.8516 10.272 11.8276 10.152C11.8276 10.032 11.8036 9.91205 11.8036 9.79205C11.8036 9.69605 11.7796 9.57605 11.7556 9.48005C11.7316 9.31205 11.7076 9.16805 11.6596 9.00005L11.6356 8.95205C11.6116 8.85605 11.5876 8.73605 11.5396 8.64005C11.4436 8.30405 11.3236 7.96805 11.2036 7.68005C11.1556 7.56005 11.1076 7.44005 11.0596 7.32005C10.9876 7.15205 10.9156 6.98405 10.8436 6.84005C10.8196 6.76805 10.7716 6.72005 10.7476 6.64805C10.7236 6.57605 10.6756 6.50405 10.6516 6.43205C10.6276 6.38405 10.6036 6.33605 10.5796 6.28805L10.3636 5.90405C10.3396 5.85605 10.3876 5.78405 10.4356 5.80805L11.7556 6.16805L11.9236 6.21605L12.1156 6.26405L12.1876 6.28805V5.49605C12.1876 5.11205 12.4996 4.80005 12.8596 4.80005C13.0516 4.80005 13.2196 4.87205 13.3396 4.99205C13.4596 5.11205 13.5316 5.28005 13.5316 5.47205V6.62405L13.6756 6.67205C13.6756 6.67205 13.6996 6.67205 13.6996 6.69605C13.7236 6.72005 13.7716 6.76805 13.8436 6.81605C13.8916 6.86405 13.9396 6.91205 14.0116 6.96005C14.1316 7.05605 14.2996 7.20005 14.4676 7.34405C14.5156 7.39205 14.5636 7.41605 14.5876 7.46405C14.8036 7.65605 15.0436 7.89605 15.2836 8.16005C15.3556 8.23205 15.4036 8.30405 15.4756 8.37605C15.5476 8.44805 15.5956 8.54405 15.6676 8.61605C15.7396 8.71205 15.8356 8.83205 15.9076 8.92805C15.9316 8.97605 15.9796 9.02405 16.0036 9.09605C16.0996 9.24005 16.1716 9.38405 16.2676 9.52805C16.2916 9.60005 16.3396 9.67205 16.3636 9.74405C16.4596 9.93605 16.5316 10.128 16.5556 10.344C16.5796 10.392 16.5796 10.44 16.5796 10.464C16.6036 10.512 16.6036 10.584 16.6036 10.656C16.6276 10.872 16.6036 11.064 16.5796 11.28C16.5556 11.376 16.5316 11.448 16.5076 11.544C16.4836 11.616 16.4596 11.712 16.4116 11.808C16.3396 11.976 16.2436 12.144 16.1476 12.312C16.1236 12.36 16.0756 12.432 16.0276 12.504C15.9796 12.576 15.9316 12.624 15.9076 12.696C15.8596 12.768 15.7876 12.84 15.7396 12.912C15.6916 12.984 15.6436 13.056 15.5716 13.128C15.4996 13.224 15.4036 13.32 15.3316 13.416C15.2836 13.464 15.2356 13.536 15.1636 13.584C15.1156 13.632 15.0676 13.704 14.9956 13.752C14.9236 13.824 14.8516 13.896 14.7796 13.944L14.6356 14.064C14.6116 14.088 14.5876 14.088 14.5636 14.088H13.5076V15.432H14.8276C15.1156 15.432 15.4036 15.336 15.6196 15.144C15.6916 15.072 16.0276 14.784 16.4356 14.352C16.4596 14.328 16.4596 14.328 16.4836 14.328L20.1316 13.272C20.2756 13.2 20.3236 13.248 20.3236 13.32Z" fill="white"/>
</svg>
