<svg width="56" height="12" viewBox="0 0 56 12" fill="none" xmlns="http://www.w3.org/2000/svg">
<g clip-path="url(#clip0_3511_340629)">
<path d="M0.693359 11.8054V0.32977H4.93818C5.8586 0.32977 6.61802 0.484753 7.21815 0.789553C7.81828 1.09435 8.26773 1.51453 8.56306 2.04922C8.85839 2.58391 9.00821 3.18404 9.00821 3.85391C9.00821 4.48935 8.86355 5.06881 8.58286 5.5992C8.29787 6.12958 7.85789 6.55407 7.25259 6.87953C6.65246 7.20413 5.88271 7.36428 4.94248 7.36428H2.79855V11.8046H0.693359V11.8054ZM2.79338 5.65516H4.80816C5.5383 5.65516 6.06783 5.49501 6.38813 5.17041C6.70843 4.85011 6.87288 4.41013 6.87288 3.85047C6.87288 3.29081 6.71273 2.83533 6.38813 2.51589C6.06783 2.19559 5.5383 2.03114 4.80816 2.03114H2.79338V5.65602V5.65516ZM13.5587 12C12.7734 12 12.064 11.82 11.4337 11.4601C10.8034 11.1002 10.3083 10.6 9.94327 9.96025C9.5782 9.32051 9.39308 8.58004 9.39308 7.74055C9.39308 6.90106 9.5782 6.16058 9.94844 5.52084C10.3187 4.88111 10.8181 4.38086 11.4483 4.02095C12.0786 3.66105 12.7829 3.48109 13.5733 3.48109C14.3637 3.48109 15.0534 3.66105 15.6785 4.02095C16.3088 4.38086 16.8039 4.88111 17.1689 5.52084C17.534 6.16058 17.7191 6.90106 17.7191 7.74055C17.7191 8.58004 17.534 9.32051 17.1689 9.96025C16.8039 10.6 16.3036 11.1002 15.669 11.4601C15.0439 11.82 14.3388 12 13.5587 12ZM13.5587 10.1798C14.1037 10.1798 14.579 9.97489 14.9837 9.56504C15.3883 9.1552 15.589 8.54474 15.589 7.73538C15.589 6.92602 15.3892 6.31556 14.9837 5.90572C14.579 5.49587 14.1089 5.29095 13.5733 5.29095C13.0378 5.29095 12.5384 5.49587 12.138 5.90572C11.7376 6.31556 11.5379 6.92602 11.5379 7.73538C11.5379 8.54474 11.7376 9.1552 12.138 9.56504C12.5427 9.97489 13.0128 10.1798 13.5578 10.1798H13.5587ZM20.0835 2.40999C19.6986 2.40999 19.3886 2.29461 19.1381 2.06472C18.8927 1.83483 18.7678 1.54467 18.7678 1.19509C18.7678 0.845519 18.8927 0.559661 19.1381 0.334936C19.3835 0.11021 19.6977 0 20.0835 0C20.4692 0 20.7783 0.11021 21.0237 0.334936C21.2691 0.559661 21.3939 0.844658 21.3939 1.19509C21.3939 1.54553 21.2691 1.83483 21.0237 2.06472C20.7783 2.29461 20.464 2.40999 20.0835 2.40999V2.40999ZM19.0339 3.67482H21.1339V11.8097H19.0339V3.67482ZM22.9085 3.67482H24.9233V5.04987C25.1729 4.57028 25.538 4.18454 26.0133 3.90471C26.4886 3.61972 27.0482 3.47937 27.6931 3.47937C28.698 3.47937 29.478 3.7945 30.0386 4.42907C30.5982 5.0645 30.8737 5.9944 30.8737 7.21447V11.8097H28.7737V7.40992C28.7737 6.70991 28.6334 6.17522 28.3484 5.80498C28.0634 5.43474 27.6234 5.24962 27.0181 5.24962C26.4128 5.24962 25.9427 5.45455 25.5682 5.87472C25.1928 6.28973 25.0033 6.87006 25.0033 7.61484V11.8097H22.9085V3.67482V3.67482ZM35.9718 11.8097C35.1435 11.802 34.4737 11.5919 33.9682 11.1803C33.4534 10.7653 33.1985 10.0257 33.1985 8.96491V5.42527H31.8036V3.67568H33.1985V1.49042H35.2985V3.67568H37.4932V5.42527H35.2985V8.98041C35.2985 9.37562 35.3838 9.64512 35.5534 9.79063C35.723 9.93528 36.0132 10.011 36.4282 10.011H37.4433V11.8114H35.9718V11.8097ZM40.0031 11.9199C39.6182 11.9199 39.3083 11.8002 39.0629 11.56C38.8175 11.3198 38.6926 11.0296 38.6926 10.6904C38.6926 10.3512 38.8175 10.0455 39.0629 9.80527C39.3083 9.56504 39.6225 9.44536 40.0031 9.44536C40.3837 9.44536 40.698 9.56504 40.9485 9.80527C41.1939 10.0455 41.3187 10.34 41.3187 10.6904C41.3187 11.0408 41.1939 11.3207 40.9485 11.56C40.7031 11.8002 40.3888 11.9199 40.0031 11.9199ZM46.0078 12C45.2226 12 44.5131 11.82 43.8829 11.4601C43.2526 11.1002 42.7575 10.6 42.3924 9.96025C42.0274 9.32051 41.8422 8.58004 41.8422 7.74055C41.8422 6.90106 42.0274 6.16058 42.3976 5.52084C42.7678 4.88111 43.2672 4.38086 43.8975 4.02095C44.5278 3.66105 45.2321 3.48109 46.0225 3.48109C46.8129 3.48109 47.5026 3.66105 48.1277 4.02095C48.7579 4.38086 49.253 4.88111 49.6181 5.52084C49.9832 6.16058 50.1683 6.90106 50.1683 7.74055C50.1683 8.58004 49.9832 9.32051 49.6181 9.96025C49.253 10.6 48.7528 11.1002 48.1182 11.4601C47.4879 11.82 46.7836 12 46.0078 12ZM46.0078 10.1798C46.5529 10.1798 47.0282 9.97489 47.4328 9.56504C47.8375 9.1552 48.0381 8.54474 48.0381 7.73538C48.0381 6.92602 47.8384 6.31556 47.4328 5.90572C47.0282 5.49587 46.558 5.29095 46.0225 5.29095C45.4869 5.29095 44.9875 5.49587 44.5872 5.90572C44.1868 6.31556 43.987 6.92602 43.987 7.73538C43.987 8.54474 44.1868 9.1552 44.5872 9.56504C44.9875 9.97489 45.462 10.1798 46.007 10.1798H46.0078ZM51.843 5.42441H50.7279V3.67482H51.843V2.72512C51.843 1.74012 52.0927 1.04011 52.5877 0.625099C53.0828 0.210088 53.7579 0 54.6129 0H55.5126V1.78489H54.9375C54.5776 1.78489 54.3227 1.85463 54.1677 2.00014C54.0127 2.14049 53.9378 2.38502 53.9378 2.71995V3.67482H55.6926V5.42441H53.9378V11.8097H51.843V5.42527V5.42441Z" fill="white"/>
</g>
<defs>
<clipPath id="clip0_3511_340629">
<rect width="55.0001" height="12" fill="white" transform="translate(0.693359)"/>
</clipPath>
</defs>
</svg>
